<svg id="Calque_1" data-name="Calque 1" xmlns="http://www.w3.org/2000/svg" viewBox="0 0 1920 1920">
  <g>
    <path d="M790.1,748.51s48,14.72,80.13,60,41.2,130.28,69.38,165.71,204.8-72.74,204.8-72.74L1284.5,796.35l-52.33-37.22S1189,779.58,1095,752.87,893.12,706.54,790.1,748.51Z" style="fill: #b78377"/>
    <g>
      <path d="M229,1140.56c25.44,3.6,45.19,14.43,67.71,8.2,7.12-8.73,23.56-11.14,35.24-.82S343.65,1173,336,1181a40,40,0,0,1-3.46,3.43h0s-23.17,40.83-32.68,32.42l-69.24-61.21S212,1138.16,229,1140.56Z" style="fill: #573961"/>
      <path d="M666.12,900.25a52.45,52.45,0,0,1-8.29,71.24c-.09.24-.16.49-.25.74-21.52,16.67-29.61,41.17-106.2,97.24s-218,113.74-218,113.74c-12.52,9.27-27.21,8.71-36.48-3.82s-7.8-26.66,4.73-35.93L587.74,893.52a53,53,0,0,1,5-4.24A52.45,52.45,0,0,1,666.12,900.25Z" style="fill: #573961"/>
    </g>
    <path d="M1004.85,935.72a75.77,75.77,0,0,1-34.64,147.47h0C801.25,1051.43,616.9,978.5,616.9,978.5a52.44,52.44,0,0,1,23-102.28h0L996.15,934h0A76.47,76.47,0,0,1,1004.85,935.72Z" style="fill: #ffcd50"/>
    <path d="M1055,1063.27a75.77,75.77,0,0,1,31,148.28h0c-166.53,42.73-364.42,54.67-364.42,54.67a52.44,52.44,0,0,1-22.47-102.39h0l347.25-98.44h0A75.16,75.16,0,0,1,1055,1063.27Z" style="fill: #ffcd50"/>
    <g>
      <path d="M1020.55,1548.29c-3.42-25.46,1.67-47.4-10.42-67.39-10.33-4.5-17.1-19.67-10.33-33.7s21-18.07,30.73-12.9a40.46,40.46,0,0,1,4.24,2.4h0s45.57,11.25,40,22.69l-40.19,83.22S1022.84,1565.34,1020.55,1548.29Z" style="fill: #573961"/>
      <path d="M673,1190.94a52.46,52.46,0,0,1,70.87-11l.79,0c21.79,16.29,47.57,17.55,122,76.43s167.75,179.8,167.75,179.8c12.28,9.6,15.65,23.91,6,36.18s-23.61,14.62-35.89,5L687.43,1268.28A52.4,52.4,0,0,1,673,1190.94Z" style="fill: #573961"/>
    </g>
    <path d="M861.14,1246.55s119.2,106.47,171.53,177.33c-26.17,36.52-41.43,52.88-41.43,52.88s-286.72-185.88-321.06-216.41-4.75-76.28,6.23-84.13,51.55-21.36,107.15-5.41S861.14,1246.55,861.14,1246.55Z" style="fill: #ffcd50"/>
    <path d="M304.06,1129.17S564.16,904.41,590.6,887s58.24-9.31,58.24-9.31V983.72s-28.63,44.79-115.12,108-182.78,93.39-182.78,93.39Z" style="fill: #ffcd50"/>
    <path d="M344.4,1164.57a1.2,1.2,0,0,1-.63-2.22c1.4-.85,140.51-85.65,197.22-129,16-12.2,29.31-24.89,41.09-36.08,31.25-29.69,53.83-51.15,94.7-37.82,16.55,5.39,39.93,13.72,67,23.37,64.55,23,153,54.49,232.14,76a1.19,1.19,0,1,1-.63,2.3C896,1039.57,807.57,1008.05,743,985.05c-27.06-9.65-50.44-18-67-23.36-39.52-12.88-61.66,8.16-92.32,37.29-11.82,11.23-25.21,24-41.27,36.24-56.81,43.46-196,128.33-197.43,129.18A1.19,1.19,0,0,1,344.4,1164.57Z" style="fill: #f4ae11"/>
    <path d="M1005.74,1440.08a1.22,1.22,0,0,1-.88-.38C900.06,1327.59,808.41,1277.18,764.37,1253c-20.47-11.26-29.81-16.39-29.43-21,.23-2.74.77-9.14,145.36-27.22,71-8.88,142.81-16.25,143.52-16.32a1.18,1.18,0,0,1,1.31,1.06,1.2,1.2,0,0,1-1.06,1.32c-.71.07-71.45,7.33-141.91,16.12-128,16-143.95,23-144.84,25.29-.25,3,11.68,9.61,28.2,18.7,44.15,24.28,136,74.82,241.09,187.21a1.19,1.19,0,0,1-.87,2Z" style="fill: #f4ae11"/>
    <path d="M863.32,1252.47a1.11,1.11,0,0,1-.43-.09c-33.6-13.22-71.21-15.52-71.59-15.54a1.2,1.2,0,0,1,.14-2.39c.38,0,38.38,2.35,72.32,15.71a1.19,1.19,0,0,1,.68,1.55A1.21,1.21,0,0,1,863.32,1252.47Z" style="fill: #f4ae11"/>
    <path d="M1035.6,920.49,986,942.65c-37.77,16.85-56.15,57.92-41.06,91.74l62.63,140.34c15.13,33.91,58.15,47.62,96,30.6l49.57-22.33c37.61-16.93,55.86-57.9,40.81-91.62L1131.31,951.2C1116.22,917.39,1073.37,903.64,1035.6,920.49Z" style="fill: #ffcd50"/>
    <path d="M1529.52,638.49s-49.41,39.77-93,14.18-24-74,9.09-111.84,68.38-66.8,103-51.46,56.85,52.73,35.7,90.69S1529.52,638.49,1529.52,638.49Z" style="fill: #ffc4ad"/>
    <path d="M1293.32,659.37c28-6.46,65.76-2.23,96.28.39,19.1,1.63,38.88,5,56.75,16.11h0c16.86,10.47,31,15.1,45,34.8,28.88,40.7,72.23,76,57.42,139.14-21.61,92.15-141.26,184.6-223.66,229.76-50.14,29.67-105.32,58.4-150.22,94.32-34.51-19.73-80.58-87.84-100.66-117.08s-69-93.51-68.5-129.61c29.77-21.28,94.24-50.29,117.56-63.19,20.16-11.15,4.07-2.57,4.07-2.57,18-8.84,42-33.6,50-42.82C1209.72,781.4,1249.31,669.52,1293.32,659.37Z" style="fill: #feefec"/>
    <path d="M943.07,353.22s40,76,135.15,161.4h0a44.6,44.6,0,0,1-55.62,69.74,45.16,45.16,0,0,1-5.44-5.15h0s-75.83-78.51-122.58-211a25.44,25.44,0,1,1,48.5-14.94Z" style="fill: #ffc4ad"/>
    <path d="M930.94,308.39c9.59,18.24,11.08,41.55,11.08,41.55s3.51,18.35-14.79,27.53-33.32-11.05-33.32-11.05S847,289,848.26,286s5.32.22,5.32.22-7.08-12.23-4.76-15.13,7.68-.46,7.68-.46-3.85-7.09-1.41-9.24,10.33,5.39,10.33,5.39-3.58-6.52-.15-10.36,34.57,30.49,39.84,37.62c1.58,2.13,4.33,6.72,7.4,12.1h0c8.63,3.65-5.85-23.66-2.51-26.48S921.36,290.14,930.94,308.39Z" style="fill: #ffc4ad"/>
    <path d="M1495.43,1279.16s61.75-59.67,117.08-175h0a44.6,44.6,0,0,1,82.53,33.86,44.11,44.11,0,0,1-3.43,6.67h0s-54.13,94.78-168.27,176.78a25.44,25.44,0,1,1-27.92-42.37Z" style="fill: #ffc4ad"/>
    <path d="M1455.78,1303.36c14.83-14.31,36.79-22.27,36.79-22.27s16.63-8.51,30.57,6.48-1.28,35.08-1.28,35.08-61.21,66.76-64.45,66.36-1.28-5.16-1.28-5.16-9.75,10.21-13.19,8.8-2.59-7.24-2.59-7.24-5.73,5.68-8.48,3.94,2.28-11.43,2.28-11.43-5.25,5.26-9.9,3,19.59-41.72,25-48.79c1.6-2.11,5.24-6,9.54-10.49h0c1.08-9.3-21.08,12.25-24.72,9.83S1441,1317.67,1455.78,1303.36Z" style="fill: #ffc4ad"/>
    <g>
      <path d="M1339,658.27a56.6,56.6,0,0,1-40.42,100.63h0s-66.59-3.14-160.91-71-120.56-108.66-120.56-108.66h0a44.59,44.59,0,0,1,65.11-60.92h0s28,27,98.43,70.76,135.58,58.27,135.58,58.27h0A56.32,56.32,0,0,1,1339,658.27Z" style="fill: #ffc4ad"/>
      <path d="M1348,737.83a56.56,56.56,0,0,1-49.39,21.07h0s-46.15-2.18-116-42.08l50.47-99.55c47.3,22,83.2,30,83.2,30h0A56.63,56.63,0,0,1,1348,737.83Z" style="fill: #feefec"/>
    </g>
    <g>
      <path d="M1481.83,864.49A56.61,56.61,0,0,1,1573.14,806h0s52.41,41.19,89.83,151.22,35.14,158.45,35.14,158.45h0a44.59,44.59,0,0,1-87.2,17.17,43.81,43.81,0,0,1-1.17-5.33h0s-7.12-38.24-39.11-114.73S1494,886.62,1494,886.62h0A56.32,56.32,0,0,1,1481.83,864.49Z" style="fill: #ffc4ad"/>
      <path d="M1520.69,794.5A56.53,56.53,0,0,1,1573.14,806h0s36.32,28.55,70.07,101.59l-98.87,51.79C1518.6,914,1494,886.62,1494,886.62h0a56.61,56.61,0,0,1,26.67-92.12Z" style="fill: #feefec"/>
    </g>
    <path d="M1500.07,593.84a35,35,0,0,1,19.29,45.53l-29.3,72.38-.09,0a35,35,0,0,1-63.75-28.6l28.32-70A35,35,0,0,1,1500.07,593.84Z" style="fill: #ffc4ad"/>
    <path d="M1510.51,661.24s-8.92-32.1,0-55.54,11.65-24.53,32.36-40.34,23.44-54.44,0-60.47-36.32-14.76-36.32-14.76-32.22,14.77-55.52,44.62c-17.72-39.16,1.35-61.51,28.61-66.41s12-45.79,50.69-59.42,58.49,21.26,58.68,36,30.72,22.89,40.53,52.33,5.45,54-10.36,68.13-22.34,37.61-36.52,56.69S1541.93,663.9,1510.51,661.24Z" style="fill: #b96b69"/>
    <path d="M1438.17,653.59s31.13,16,70.64,0c1,4.65,1.7,7.65,1.7,7.65s-33.43,32.56-80.66,12.9Z" style="fill: #efa087"/>
    <path d="M1502,724.79s-90.63,59.34-199,181.75c-88.07,99.52-290.17,91.34-401,127.73,47.79,137.78,84.72,216.67,159.47,232.82,187.58-44.35,467.05-294.55,539.9-430.27C1558.13,766.5,1502,724.79,1502,724.79Z" style="fill: #cda295"/>
    <path d="M1541.24,820.47,1573,796.35s46.28,55.19,70.21,93.89,64.81,198.41,61,246.38S1564.68,1304,1564.68,1304l-57.24-54s80.9-125.72,88.31-136.82S1544,979.63,1514,931.12,1541.24,820.47,1541.24,820.47Z" style="fill: #cda295"/>
    <path d="M1404.3,661.45s-70.38,26.76-164.14,108.69c-62.4,54.53-114.81-5.29-210.85-24.92s-165.24-20.87-255.19,25.64c-1.28-21.07,0-27.62,0-27.62s75-40.7,165.49-32,206.07,46.51,251.13,41.42,125.54-105.38,125.54-105.38S1369.3,648.7,1404.3,661.45Z" style="fill: #cda295"/>
    <path d="M895.26,405.82l69.81-33.42s64.56,89.71,140.09,153.17,177.65,109.74,246.89,124.6c-38.66,40-130.78,98.34-130.78,98.34s-91.58-40.61-179.88-131.23S895.26,405.82,895.26,405.82Z" style="fill: #cda295"/>
    <polygon points="1507.44 1250 1490.91 1274.71 1532.7 1321.22 1564.67 1303.96 1507.44 1250" style="fill: #b78377"/>
    <polygon points="886.76 372.4 946.54 349.69 965.07 372.4 895.26 405.82 886.76 372.4" style="fill: #b78377"/>
    <path d="M1309.84,898.91s53.51-73.9,98.21-109.52,87.78-91.88,96-112.28c15.89,22.63,20.61,46.87,3.9,71.4S1361.34,862,1309.84,898.91Z" style="fill: #b78377"/>
    <path d="M1228.67,779s76.76-55.44,113.61-80.63,65.64-32.67,89.78-29.69l6.11-15.08s-48.74-16.23-90.08,7.66S1273.87,732.24,1228.67,779Z" style="fill: #b78377"/>
    <path d="M1520.27,942.84a1.21,1.21,0,0,1-1.08-.68L1494.92,892a1.19,1.19,0,1,1,2.15-1l24.28,50.13a1.2,1.2,0,0,1-.56,1.6A1.17,1.17,0,0,1,1520.27,942.84Z" style="fill: #b78377"/>
    <path d="M1215.46,743.69a1.2,1.2,0,0,1-.94-1.92c1.47-1.83,57.94-45.73,69.24-54.51a1.2,1.2,0,1,1,1.47,1.89c-26.81,20.82-67.27,52.42-68.87,54.14A1.23,1.23,0,0,1,1215.46,743.69Z" style="fill: #b78377"/>
    <path d="M1098.08,1252.47a1.07,1.07,0,0,1-.39-.07c-.62-.21-62.46-21.79-101.64-87.23-39-65.24-54.52-135.71-54.68-136.41a1.21,1.21,0,0,1,.92-1.42,1.19,1.19,0,0,1,1.42.92c.15.7,15.55,70.79,54.4,135.68,38.7,64.66,99.74,86,100.35,86.2a1.2,1.2,0,0,1-.38,2.33Z" style="fill: #b78377"/>
    <path d="M810.27,754.07a1.19,1.19,0,0,1-1.11-.76c-5.85-14.89-2.18-23.08-2-23.43a1.21,1.21,0,0,1,1.59-.58,1.2,1.2,0,0,1,.58,1.59c0,.1-3.35,7.73,2.07,21.55a1.2,1.2,0,0,1-.67,1.55A1.41,1.41,0,0,1,810.27,754.07Z" style="fill: #b78377"/>
  </g>
</svg>
