<svg id="fantome" xmlns="http://www.w3.org/2000/svg" xmlns:xlink="http://www.w3.org/1999/xlink" viewBox="0 0 1920 1920">
  <defs>
    <linearGradient id="Dégradé_sans_nom_32" data-name="Dégradé sans nom 32" x1="964.18" y1="756.25" x2="964.18" y2="1163.75" gradientUnits="userSpaceOnUse">
      <stop offset="0.69" stop-color="#f7f5ff"/>
      <stop offset="0.74" stop-color="#f3f1fb"/>
      <stop offset="0.78" stop-color="#e7e5ee"/>
      <stop offset="0.83" stop-color="#d2d1d9"/>
      <stop offset="0.88" stop-color="#b6b5bb"/>
      <stop offset="0.93" stop-color="#919094"/>
      <stop offset="0.98" stop-color="#656466"/>
      <stop offset="1" stop-color="#4c4c4c"/>
    </linearGradient>
  </defs>
  <path d="M948,756.25c162,0,147.5,277.5,160.5,299.5s33,26,28,42c-14,33-41,2-53,16s-16,35-35,36c-25,1.31-24-27-42-27-23,0-17,41-50,41-24,0-22-31-33-32s-23,18-48,18c-28,0-12-30-19-35-12-8.58-44,24-61,2s19.85-45.88,30-54S806,756.25,948,756.25Z" style="stroke: #999;stroke-miterlimit: 10;fill: url(#Dégradé_sans_nom_32)"/>
</svg>
