<svg id="Calque_1" data-name="Calque 1" xmlns="http://www.w3.org/2000/svg" xmlns:xlink="http://www.w3.org/1999/xlink" viewBox="0 0 1920 1920">
  <defs>
    <linearGradient id="Dégradé_sans_nom_32" data-name="Dégradé sans nom 32" x1="-339.83" y1="-57.95" x2="-339.83" y2="509.23" gradientTransform="matrix(-0.97, -0.26, -0.26, 0.97, 696.96, 594.01)" gradientUnits="userSpaceOnUse">
      <stop offset="0.69" stop-color="#f7f5ff"/>
      <stop offset="0.74" stop-color="#f3f1fb"/>
      <stop offset="0.78" stop-color="#e7e5ee"/>
      <stop offset="0.83" stop-color="#d2d1d9"/>
      <stop offset="0.88" stop-color="#b6b5bb"/>
      <stop offset="0.93" stop-color="#919094"/>
      <stop offset="0.98" stop-color="#656466"/>
      <stop offset="1" stop-color="#4c4c4c"/>
    </linearGradient>
  </defs>
  <path d="M1055.16,631.11C979.54,610.6,945.4,648,916.8,709.23c-29.21,62.53-84.17,157.9-112.25,199.3s-156.65,159.7-116.26,202.81c38.73,24.79,76.6-11.39,76.6-11.39s.32,38.38,38.84,48.82,61-21.73,61-21.73-9,35.83,28.45,46S974,1153.59,974,1153.59s-12.41,50.21,39.49,52.06c45.51,1.62,96.12-75,136.46-146C1189.8,989.41,1272.1,689.94,1055.16,631.11Z" style="stroke: #999;stroke-miterlimit: 10;fill: url(#Dégradé_sans_nom_32)"/>
  <path d="M1142,763.71c-17.92,4.83-32.13,38-22.34,59.38s34.48,36,55.41,21.49C1196.19,829.86,1162.12,758.27,1142,763.71Z" style="fill: #cac9d9"/>
  <path d="M1119.39,760.7c-6.12-17.52-35.12-31.33-71.48-.68-37.31,31.45-2.48,106.82,44.94,69.83C1103.12,821.84,1131.07,792.2,1119.39,760.7Z" style="fill: #cac9d9"/>
  <path d="M1147.51,777.68c-19.26-3.67-31.32,52.27,1.79,56.57C1176,837.72,1172.79,782.49,1147.51,777.68Z"/>
  <path d="M1103,757.83s-16.78-18.58-38.23,14.56,11.78,64.84,32.62,29.1C1117.82,766.51,1103,757.83,1103,757.83Z"/>
  <path d="M1137.73,893.84c-5.78,15.57-23.6-5.67-33.38-9.05s-25.26,2.65-29.42-6.42c-4.89-10.68,7.13-20.31,23.94-16.9s43.45,15.43,39.25,30.92"/>
</svg>
