<svg id="morph" xmlns="http://www.w3.org/2000/svg" viewBox="0 0 1920 1920">
  <path id="nuage" d="M611.22,1069s112.31-61.4,113.44-68.9,17.39-65,83.85-37c-7.17-52.16,36.22-95.54,65.49-100.66,64.91-11.34,115.9,24.39,122.86,81.15,29.3-23.44,65.89-.76,65.89-.76s17.83,8,22.83,28.17c12.91-20.68,36.49-56.89,81.88-33.49,34,17.5,33.9,46,31.72,59.25a18.47,18.47,0,0,0,4.51,15.34c11.32,12.61,40.33,37.41,105.09,56.9Z" style="fill: #fff;stroke: #999;stroke-miterlimit: 10"/>
  <path id="fantome" d="M948,756.25c162,0,147.5,277.5,160.5,299.5s33,26,28,42c-14,33-41,2-53,16s-16,35-35,36c-25,1.31-24-27-42-27-23,0-17,41-50,41-24,0-22-31-33-32s-23,18-48,18c-28,0-12-30-19-35-12-8.58-44,24-61,2s19.85-45.88,30-54S806,756.25,948,756.25Z" style="fill: #fff;stroke: #999;stroke-miterlimit: 10"/>
</svg>
