<svg id="nuage" xmlns="http://www.w3.org/2000/svg" xmlns:xlink="http://www.w3.org/1999/xlink" viewBox="0 0 1920 1920">
  <defs>
    <linearGradient id="Dégradé_sans_nom_4" data-name="Dégradé sans nom 4" x1="960.57" y1="966.55" x2="956.71" y2="1664.1" gradientUnits="userSpaceOnUse">
      <stop offset="0.06" stop-color="#f7f5ff"/>
      <stop offset="0.08" stop-color="#f3f1fb"/>
      <stop offset="0.1" stop-color="#e7e5ee"/>
      <stop offset="0.11" stop-color="#d2d1d9"/>
      <stop offset="0.13" stop-color="#b6b5bb"/>
      <stop offset="0.15" stop-color="#919094"/>
      <stop offset="0.17" stop-color="#656466"/>
      <stop offset="0.18" stop-color="#4c4c4c"/>
    </linearGradient>
  </defs>
  <path d="M611.22,1069s112.31-61.4,113.44-68.9,17.39-65,83.85-37c-7.17-52.16,36.22-95.54,65.49-100.66,64.91-11.34,115.9,24.39,122.86,81.15,29.3-23.44,65.89-.76,65.89-.76s17.83,8,22.83,28.17c12.91-20.68,36.49-56.89,81.88-33.49,34,17.5,33.9,46,31.72,59.25a18.47,18.47,0,0,0,4.51,15.34c11.32,12.61,40.33,37.41,105.09,56.9Z" style="fill: url(#Dégradé_sans_nom_4)"/>
</svg>
